<?xml version="1.0" encoding="UTF-8" standalone="no" ?>
<!DOCTYPE svg PUBLIC "-//W3C//DTD SVG 1.1//EN" "http://www.w3.org/Graphics/SVG/1.1/DTD/svg11.dtd">
<svg xmlns="http://www.w3.org/2000/svg" xmlns:xlink="http://www.w3.org/1999/xlink" version="1.1" width="1080" height="300" viewBox="0 0 1080 300" xml:space="preserve">
<desc>Created with Fabric.js 5.2.4</desc>
<defs>
</defs>
<g transform="matrix(1 0 0 1 540 150)" id="18b2a678-0ee4-43e5-b57a-92e02c3cc4c8"  >
<rect style="stroke: none; stroke-width: 1; stroke-dasharray: none; stroke-linecap: butt; stroke-dashoffset: 0; stroke-linejoin: miter; stroke-miterlimit: 4; fill: rgb(255,255,255); fill-rule: nonzero; opacity: 1; visibility: hidden;" vector-effect="non-scaling-stroke"  x="-540" y="-150" rx="0" ry="0" width="1080" height="300" />
</g>
<g transform="matrix(Infinity NaN NaN Infinity 0 0)" id="33bfc4a4-f98b-456d-bd4c-54649ad53c71"  >
</g>
<g transform="matrix(1.29 0 0 1.29 540 150)"  >
<g style="" vector-effect="non-scaling-stroke"   >
		<g transform="matrix(1.56 0 0 1.56 298.35 23.07)"  >
<path style="stroke: none; stroke-width: 1; stroke-dasharray: none; stroke-linecap: butt; stroke-dashoffset: 0; stroke-linejoin: miter; stroke-miterlimit: 4; fill: rgb(142,113,78); fill-rule: evenodd; opacity: 1;" vector-effect="non-scaling-stroke"  transform=" translate(-446.65, -87.82)" d="M 476.713 60.463 C 476.25300000000004 60.555 475.791 61.57 475.791 62.123 C 475.699 65.815 475.60699999999997 75.597 475.60699999999997 82.241 C 475.60699999999997 82.426 475.883 82.795 476.15999999999997 82.795 C 477.544 82.887 480.866 82.979 483.727 82.979 C 487.695 82.979 490.00199999999995 82.426 491.29499999999996 81.873 C 494.616 80.211 496.18499999999995 76.61200000000001 496.18499999999995 72.643 C 496.18499999999995 63.693 489.90999999999997 60.278 480.58899999999994 60.278 C 479.9429999999999 60.186 478.09899999999993 60.186 476.71299999999997 60.463 z M 500.523 101.713 C 500.523 92.577 493.786 87.50099999999999 481.605 87.50099999999999 C 481.05100000000004 87.50099999999999 477.175 87.40899999999999 476.252 87.59299999999999 C 475.975 87.68599999999999 475.607 87.871 475.607 88.148 C 475.607 94.699 475.514 105.128 475.79100000000005 109.18799999999999 C 475.9750000000001 110.94099999999999 477.26800000000003 113.43299999999999 478.83700000000005 114.17099999999999 C 480.49700000000007 115.094 484.28100000000006 115.27799999999999 486.86500000000007 115.27799999999999 C 494.1550000000001 115.27799999999999 500.5230000000001 111.21799999999999 500.5230000000001 101.713 z M 457.889 55.38799999999999 C 458.81100000000004 55.38799999999999 461.579 55.663999999999994 468.685 55.663999999999994 C 475.422 55.663999999999994 480.774 55.48 487.326 55.48 C 495.35400000000004 55.48 506.428 58.339999999999996 506.428 70.33699999999999 C 506.428 76.243 502.275 80.94999999999999 496.831 83.25699999999999 C 496.555 83.34899999999999 496.555 83.53299999999999 496.831 83.62499999999999 C 504.582 85.564 511.41200000000003 90.36199999999998 511.41200000000003 99.40499999999999 C 511.41200000000003 108.26499999999999 505.87500000000006 113.89399999999999 497.84600000000006 117.40099999999998 C 492.95500000000004 119.52299999999998 486.86500000000007 120.26099999999998 480.6820000000001 120.26099999999998 C 475.9750000000001 120.26099999999998 463.3330000000001 119.70799999999998 456.32000000000005 119.89299999999999 C 455.58200000000005 119.61499999999998 456.96600000000007 116.29299999999999 457.61100000000005 115.73999999999998 C 459.273 115.64699999999998 460.564 115.55499999999998 462.31800000000004 115.00099999999998 C 464.81000000000006 114.35599999999998 465.086 113.61699999999998 465.45500000000004 109.83399999999997 C 465.64000000000004 106.60399999999997 465.64000000000004 95.15999999999997 465.64000000000004 87.03999999999998 C 465.64000000000004 75.87399999999998 465.73300000000006 68.30699999999997 465.64000000000004 64.61599999999999 C 465.54800000000006 61.755999999999986 464.533 60.83199999999999 462.50300000000004 60.277999999999984 C 460.93300000000005 60.00199999999998 458.35 59.631999999999984 456.22700000000003 59.35599999999999 C 455.76500000000004 58.893999999999984 457.33400000000006 55.755999999999986 457.889 55.38799999999999 z M 404.641 112.78699999999999 C 406.857 114.53899999999999 411.194 115.27699999999999 415.07 115.27699999999999 C 420.053 115.27699999999999 425.036 114.35599999999998 429.835 110.01699999999998 C 434.726 105.58899999999998 438.14 98.75999999999998 438.14 87.87099999999998 C 438.14 77.44199999999998 434.17199999999997 68.95199999999998 426.051 63.969999999999985 C 421.437 61.10799999999998 415.531 59.90999999999998 408.702 59.90999999999998 C 406.672 59.90999999999998 404.734 60.00199999999998 403.535 60.554999999999986 C 403.257 60.73999999999999 402.612 61.569999999999986 402.612 62.030999999999985 C 402.427 63.87699999999998 402.427 78.08799999999998 402.427 86.39399999999998 C 402.427 94.97599999999997 402.427 106.97299999999998 402.612 108.35699999999997 C 402.612 109.74199999999998 403.257 111.86399999999998 404.642 112.78699999999998 z M 383.69300000000004 55.38699999999999 C 385.44700000000006 55.38699999999999 392.18300000000005 55.663999999999994 395.41300000000007 55.663999999999994 C 401.22800000000007 55.663999999999994 405.38000000000005 55.38799999999999 416.36100000000005 55.38799999999999 C 425.58900000000006 55.38799999999999 433.34100000000007 57.87899999999999 438.87800000000004 62.584999999999994 C 445.61400000000003 68.399 449.12200000000007 76.428 449.12200000000007 86.20899999999999 C 449.12200000000007 100.14399999999999 442.7540000000001 108.17299999999999 436.3860000000001 112.78699999999999 C 430.0200000000001 117.493 421.71400000000006 120.261 409.9020000000001 120.261 C 403.6270000000001 120.261 392.8300000000001 120.077 383.8780000000001 119.984 L 383.7860000000001 119.984 C 383.3250000000001 119.154 384.5240000000001 115.92399999999999 385.2620000000001 115.832 C 387.6620000000001 115.55499999999999 388.3080000000001 115.46199999999999 389.5080000000001 115.002 C 391.4450000000001 114.26299999999999 391.8150000000001 113.24799999999999 392.0920000000001 109.83399999999999 C 392.3680000000001 103.466 392.2760000000001 95.80699999999999 392.2760000000001 87.13199999999999 C 392.2760000000001 80.94999999999999 392.3680000000001 68.85999999999999 392.1830000000001 64.984 C 391.9070000000001 61.754999999999995 390.5230000000001 60.92399999999999 387.75400000000013 60.37 C 386.3700000000001 60.093999999999994 384.5240000000001 59.724 381.94100000000014 59.448 C 381.57100000000014 58.801 383.23200000000014 55.941 383.69300000000015 55.388 z" stroke-linecap="round" />
</g>
		<g transform="matrix(1.56 0 0 1.56 -42.63 59.84)"  >
<path style="stroke: none; stroke-width: 1; stroke-dasharray: none; stroke-linecap: butt; stroke-dashoffset: 0; stroke-linejoin: miter; stroke-miterlimit: 4; fill: rgb(68,45,34); fill-rule: evenodd; opacity: 1;" vector-effect="non-scaling-stroke"  transform=" translate(-228.43, -111.36)" d="M 272.033 116.385 C 269.726 116.108 268.065 115.74000000000001 266.035 114.81700000000001 C 265.75800000000004 114.632 265.29600000000005 113.71000000000001 265.29600000000005 113.34 C 265.112 110.11 265.112 100.882 265.112 94.7 C 265.112 89.71600000000001 264.28200000000004 85.379 262.15900000000005 82.334 C 259.66700000000003 78.82600000000001 256.0690000000001 76.797 251.45400000000004 76.797 C 247.39400000000003 76.797 241.94900000000004 79.565 237.42700000000005 83.441 C 237.33500000000004 83.533 236.59700000000004 84.18 236.68900000000005 83.164 C 236.68900000000005 82.149 236.87400000000005 80.119 236.96600000000004 78.73400000000001 C 237.05900000000003 77.44200000000001 236.32000000000005 76.79700000000001 236.32000000000005 76.79700000000001 C 233.36700000000005 78.27300000000001 225.06200000000004 80.21100000000001 222.01600000000005 80.48700000000001 C 219.80200000000005 80.95 219.24800000000005 83.072 221.55600000000004 83.81 L 221.64800000000005 83.81 C 224.13800000000006 84.548 225.80000000000004 85.379 227.09100000000007 86.21000000000001 C 228.01400000000007 86.94800000000001 227.92200000000005 87.96300000000001 227.92200000000005 88.79400000000001 C 228.01400000000007 95.71400000000001 228.01400000000007 106.32700000000001 227.73800000000006 112.14100000000002 C 227.64600000000004 114.44800000000002 227.00000000000006 115.27800000000002 225.33800000000005 115.64700000000002 L 225.52300000000005 115.55500000000002 C 224.23100000000005 115.83200000000002 223.21600000000007 116.10800000000002 221.64700000000005 116.29300000000002 C 221.09300000000005 116.84700000000002 221.09300000000005 119.80000000000003 221.64700000000005 120.44600000000003 C 222.66200000000003 120.44600000000003 228.01400000000004 120.16900000000003 232.44500000000005 120.16900000000003 C 238.53500000000005 120.16900000000003 241.67300000000006 120.44600000000003 243.24100000000004 120.44600000000003 C 243.88700000000003 119.70800000000003 244.07200000000003 116.93900000000002 243.70300000000003 116.29300000000002 C 241.94900000000004 116.20100000000002 240.65700000000004 116.01700000000002 239.45800000000003 115.64700000000002 C 237.79700000000003 115.27700000000002 237.33500000000004 114.44800000000002 237.24200000000002 112.51000000000002 C 237.05900000000003 107.61800000000002 237.05900000000003 97.28300000000002 237.05900000000003 90.27000000000002 C 237.05900000000003 88.33200000000002 237.61200000000002 87.40900000000002 238.16500000000002 86.85500000000002 C 240.288 85.01000000000002 243.70300000000003 83.71800000000002 246.74800000000002 83.71800000000002 C 249.70100000000002 83.71800000000002 251.638 84.64100000000002 253.115 85.84100000000002 C 255.145 87.50100000000002 255.791 89.90100000000002 256.068 91.65400000000002 C 256.529 95.62200000000003 256.34499999999997 103.46600000000002 256.34499999999997 110.29500000000002 C 256.34499999999997 113.98600000000002 256.068 114.90900000000002 254.68499999999997 115.37000000000002 C 254.03799999999998 115.64700000000002 252.37699999999998 116.01700000000002 250.43899999999996 116.20000000000002 C 249.79299999999998 116.84700000000002 249.97799999999995 119.70800000000001 250.43899999999996 120.35400000000001 C 253.11499999999995 120.35400000000001 256.253 120.07700000000001 260.86699999999996 120.07700000000001 C 266.58799999999997 120.07700000000001 270.28 120.35400000000001 271.75699999999995 120.35400000000001 C 272.2169999999999 119.80000000000001 272.40199999999993 117.12400000000001 272.03299999999996 116.38500000000002 z M 297.595 81.135 C 292.70500000000004 81.135 289.65900000000005 84.918 289.65900000000005 90.82300000000001 C 289.65900000000005 96.822 292.33500000000004 103.74300000000001 299.90200000000004 103.74300000000001 C 301.194 103.74300000000001 303.59400000000005 103.18900000000001 304.70000000000005 101.897 C 306.45400000000006 100.23700000000001 307.65400000000005 96.914 307.65400000000005 93.40700000000001 C 307.65400000000005 85.748 303.87000000000006 81.13400000000001 297.595 81.13400000000001 z M 296.949 121.922 C 295.104 121.922 293.81100000000004 122.476 292.981 122.938 C 289.105 125.428 287.352 127.828 287.352 130.69 C 287.352 133.365 288.36699999999996 135.487 290.582 137.333 C 293.258 139.64 296.949 140.748 301.655 140.748 C 311.068 140.748 315.22099999999995 135.672 315.22099999999995 130.69 C 315.22099999999995 127.182 313.4669999999999 124.875 309.86899999999997 123.584 C 307.28499999999997 122.476 302.57899999999995 121.922 296.94899999999996 121.922 z M 297.595 145.916 C 291.966 145.916 287.90500000000003 144.716 284.399 142.04 C 280.984 139.456 279.508 135.57999999999998 279.508 132.904 C 279.508 132.166 279.693 130.135 281.354 128.29 C 282.368 127.18199999999999 284.584 125.05999999999999 289.844 121.461 C 290.028 121.369 290.12 121.277 290.12 121.091 C 290.12 120.907 289.935 120.722 289.751 120.631 C 285.414 118.97 284.12199999999996 116.293 283.75199999999995 114.81700000000001 L 283.75199999999995 114.632 C 283.66099999999994 114.078 283.47599999999994 113.525 284.30699999999996 112.971 C 284.953 112.51 285.876 111.956 286.89 111.311 C 288.459 110.387 290.12 109.37200000000001 291.135 108.54100000000001 C 291.32 108.35700000000001 291.32 108.17300000000002 291.32 107.98800000000001 C 291.32 107.80300000000001 291.135 107.61800000000001 290.95 107.52700000000002 C 284.49199999999996 105.40400000000001 281.262 100.60500000000002 281.262 93.40700000000001 C 281.262 88.70100000000001 283.384 84.45600000000002 287.167 81.78000000000002 C 289.751 79.75000000000001 296.21099999999996 77.25800000000001 300.45599999999996 77.25800000000001 L 300.73299999999995 77.25800000000001 C 305.06999999999994 77.35000000000001 307.46899999999994 78.27300000000001 310.8829999999999 79.47300000000001 C 312.7289999999999 80.11900000000001 314.48299999999995 80.39500000000001 316.8829999999999 80.39500000000001 C 320.48099999999994 80.39500000000001 322.0499999999999 79.28800000000001 323.34099999999995 77.99700000000001 C 323.43399999999997 78.18100000000001 323.61899999999997 78.64300000000001 323.71099999999996 79.84200000000001 C 323.80299999999994 81.04200000000002 323.43399999999997 82.79500000000002 322.51099999999997 84.08700000000002 C 321.77299999999997 85.10200000000002 320.11199999999997 85.84100000000002 318.45099999999996 85.84100000000002 L 317.989 85.84100000000002 C 316.328 85.65600000000002 315.589 85.47100000000002 315.589 85.47100000000002 L 315.221 85.65600000000002 C 315.129 85.84100000000002 315.221 86.02500000000002 315.313 86.30200000000002 L 315.406 86.48700000000002 C 315.59000000000003 87.31700000000002 315.959 89.80800000000002 315.959 90.45500000000003 C 315.959 98.02200000000002 312.914 101.34300000000003 309.684 103.83500000000002 C 306.54600000000005 106.14200000000002 302.94800000000004 107.61800000000002 298.887 107.98800000000003 C 298.795 107.98800000000003 298.427 107.98800000000003 297.595 108.08000000000003 C 297.134 108.08000000000003 296.488 108.17300000000003 296.39500000000004 108.17300000000003 L 296.30300000000005 108.17300000000003 C 295.56500000000005 108.35700000000003 293.72 109.28000000000003 293.72 110.84800000000003 C 293.72 112.23200000000003 294.55 113.89400000000003 298.51800000000003 114.17100000000002 C 299.348 114.26300000000002 300.17800000000005 114.26300000000002 301.10200000000003 114.35600000000002 C 306.362 114.72400000000002 312.91400000000004 115.18600000000002 315.95900000000006 116.20100000000002 C 320.20400000000006 117.76900000000002 322.88000000000005 121.55300000000003 322.88000000000005 126.07500000000002 C 322.88000000000005 132.90500000000003 317.99000000000007 139.27200000000002 309.869 143.23900000000003 C 305.901 144.99300000000002 301.932 145.91600000000003 297.595 145.91600000000003 z M 350.19500000000005 81.596 C 348.25800000000004 81.596 346.5040000000001 82.056 345.21200000000005 82.979 C 341.61400000000003 85.194 339.76800000000003 89.624 339.76800000000003 96.083 C 339.76800000000003 108.173 345.858 116.663 354.533 116.663 C 357.117 116.663 359.147 115.92399999999999 360.90000000000003 114.448 C 363.576 112.232 364.961 107.803 364.961 101.61999999999999 C 364.961 89.624 358.962 81.595 350.196 81.595 z M 351.857 121.09200000000001 C 336.16900000000004 121.09200000000001 330.54 109.55700000000002 330.54 98.76000000000002 C 330.54 91.19300000000001 333.58500000000004 85.37900000000002 339.675 81.22600000000003 C 344.01300000000003 78.55000000000003 349.18100000000004 77.07400000000003 353.795 77.07400000000003 C 365.791 77.07400000000003 374.189 85.65600000000003 374.189 98.02200000000002 C 374.189 106.41900000000003 370.867 113.06300000000002 364.499 117.12400000000002 C 361.454 119.15400000000002 356.194 121.09200000000003 351.856 121.09200000000003 L 351.85699999999997 121.09200000000003 z M 187.411 81.595 C 185.473 81.595 183.72 82.056 182.427 82.979 C 178.82899999999998 85.194 176.983 89.624 176.983 96.083 C 176.983 108.173 183.073 116.663 191.748 116.663 C 194.332 116.663 196.362 115.92399999999999 198.11599999999999 114.448 C 200.791 112.232 202.176 107.803 202.176 101.61999999999999 C 202.176 89.624 196.26999999999998 81.595 187.411 81.595 z M 189.072 121.092 C 173.38400000000001 121.092 167.755 109.557 167.755 98.75999999999999 C 167.755 91.19299999999998 170.79999999999998 85.37899999999999 176.89 81.226 C 181.22799999999998 78.55 186.396 77.074 191.01 77.074 C 203.007 77.074 211.404 85.656 211.404 98.02199999999999 C 211.404 106.419 208.082 113.06299999999999 201.714 117.124 C 198.761 119.154 193.501 121.092 189.072 121.092 z M 83.59400000000001 120.169 C 83.409 119.893 83.224 119.062 83.31700000000001 118.047 C 83.31700000000001 117.30799999999999 83.50200000000001 116.847 83.59400000000001 116.663 C 85.53200000000001 116.38499999999999 86.54700000000001 116.10799999999999 87.65400000000001 115.832 C 89.50000000000001 115.36999999999999 90.23800000000001 114.356 90.33000000000001 112.04899999999999 C 90.60800000000002 106.51199999999999 90.60800000000002 95.99099999999999 90.51500000000001 88.701 L 90.51500000000001 88.51599999999999 C 90.51500000000001 87.68599999999999 90.51500000000001 86.66999999999999 89.50000000000001 85.93199999999999 C 88.02300000000001 85.00999999999999 86.27000000000001 84.17999999999999 83.96300000000001 83.53199999999998 C 83.13300000000001 83.25699999999998 82.57900000000001 82.79499999999999 82.671 82.24199999999998 C 82.671 81.68799999999997 83.22500000000001 81.04199999999997 84.42500000000001 80.85699999999997 C 87.47000000000001 80.57999999999997 95.40500000000002 78.64299999999997 98.543 77.25799999999997 C 98.72800000000001 77.44199999999996 99.00500000000001 77.99699999999997 99.00500000000001 78.73499999999997 L 98.91300000000001 79.74899999999997 C 98.82000000000001 80.76499999999997 98.72800000000001 81.96499999999996 98.72800000000001 83.16399999999997 C 98.72800000000001 83.53299999999997 99.09800000000001 83.80999999999997 99.46600000000001 83.80999999999997 C 99.65100000000001 83.80999999999997 99.83600000000001 83.71799999999998 100.02000000000001 83.62499999999997 C 105.92600000000002 79.01099999999997 111.278 77.34999999999997 114.046 77.34999999999997 C 118.569 77.34999999999997 122.07600000000001 79.47299999999997 124.75200000000001 83.90199999999996 C 124.936 84.17999999999996 125.12100000000001 84.27199999999996 125.39800000000001 84.27199999999996 C 125.58200000000001 84.27199999999996 125.858 84.17999999999996 125.95100000000001 83.99499999999996 C 131.39600000000002 79.84199999999996 136.841 77.34999999999997 140.43900000000002 77.34999999999997 C 149.02100000000002 77.34999999999997 154.097 83.71799999999996 154.097 94.51499999999996 C 154.097 97.55999999999996 154.097 101.52799999999996 154.005 105.12799999999996 C 154.005 108.35699999999996 153.91299999999998 111.30999999999996 153.91299999999998 113.43299999999996 C 153.91299999999998 113.89299999999996 154.558 115.36999999999996 155.57299999999998 115.64699999999996 C 156.86499999999998 116.29299999999996 158.61899999999997 116.56999999999996 160.926 116.93899999999996 L 161.018 116.93899999999996 C 161.203 117.58499999999997 160.834 119.98399999999997 160.465 120.44599999999997 C 159.911 120.44599999999997 159.08 120.44599999999997 158.15800000000002 120.35399999999997 C 155.82197645078003 120.23211524879372 153.4832006915949 120.17042812084256 151.14400000000006 120.16899999999994 C 145.423 120.16899999999997 142.47 120.26099999999997 139.608 120.44599999999997 C 139.425 119.70799999999997 139.332 117.49299999999997 139.608 116.93899999999996 C 141.27 116.66299999999997 142.1 116.38499999999996 143.116 116.10899999999997 C 144.96200000000002 115.55499999999996 145.423 114.72399999999996 145.51600000000002 112.32499999999996 C 145.51600000000002 110.57199999999996 145.88400000000001 95.62199999999996 145.33 92.02299999999997 C 144.77700000000002 88.33199999999997 142.008 83.99499999999996 135.917 83.99499999999996 C 133.61 83.99499999999996 130.012 84.91799999999996 126.505 87.59299999999996 C 126.321 87.77799999999996 126.13499999999999 88.23899999999996 126.13499999999999 88.51599999999996 L 126.13499999999999 88.60899999999997 C 126.505 90.54599999999996 126.505 92.76199999999997 126.505 96.17599999999996 L 126.505 102.17399999999996 C 126.505 106.32699999999997 126.41199999999999 110.20299999999996 126.505 113.15499999999996 C 126.505 115.18599999999996 127.705 115.64699999999996 128.72 116.01699999999995 C 129.274 116.10799999999995 129.642 116.20099999999995 130.10399999999998 116.29299999999995 C 130.934 116.47799999999995 131.765 116.66299999999995 133.057 116.93899999999995 C 133.242 117.30899999999995 133.242 118.50799999999995 132.96499999999997 119.52299999999995 C 132.87199999999999 120.07699999999996 132.68699999999998 120.35299999999995 132.59499999999997 120.44599999999996 C 129.45799999999997 120.35399999999996 126.22799999999997 120.26099999999995 121.52199999999996 120.26099999999995 C 120.13799999999996 120.26099999999995 117.73799999999996 120.35399999999996 115.70799999999997 120.35399999999996 C 114.04599999999996 120.35399999999996 112.47799999999997 120.44599999999996 111.55599999999997 120.44599999999996 C 111.46299999999997 120.26099999999995 111.27799999999996 119.61599999999996 111.27799999999996 118.59999999999995 C 111.27799999999996 117.76999999999995 111.46299999999997 117.12399999999995 111.64799999999997 116.93899999999995 C 112.10899999999997 116.84699999999995 112.47799999999997 116.75499999999995 112.93999999999997 116.75499999999995 C 114.04599999999996 116.56999999999995 114.96999999999997 116.38499999999995 115.89199999999997 116.20099999999995 C 117.46199999999996 115.73999999999995 118.01499999999997 114.90899999999995 118.10699999999997 112.87899999999995 C 118.38399999999997 108.26499999999994 118.66099999999997 95.06899999999995 118.01499999999997 91.74599999999995 C 116.90799999999997 86.39399999999995 113.86299999999997 83.71799999999995 108.97099999999998 83.71799999999995 C 106.11099999999998 83.71799999999995 102.51099999999998 85.10199999999995 99.55899999999997 87.31799999999994 C 99.09699999999997 87.68599999999994 98.72799999999997 88.60799999999995 98.72799999999997 89.43899999999994 L 98.72799999999997 94.88399999999993 C 98.72799999999997 101.52799999999993 98.72799999999997 109.83399999999993 98.81999999999996 113.43299999999994 C 98.91299999999997 114.53899999999993 99.28099999999996 115.83199999999994 101.40399999999997 116.29299999999994 C 101.86599999999997 116.38499999999993 102.60399999999997 116.56999999999994 103.52699999999997 116.66299999999994 L 105.18699999999997 116.93899999999994 C 105.37299999999998 117.49299999999994 105.27999999999997 119.70799999999994 104.91099999999997 120.44599999999994 C 103.98799999999997 120.44599999999994 102.88099999999997 120.35399999999994 101.58799999999998 120.35399999999994 C 99.65099999999998 120.26099999999994 97.15899999999998 120.16899999999994 94.39099999999998 120.16899999999994 C 91.16099999999997 120.16899999999994 88.85399999999997 120.26099999999994 87.00799999999998 120.35399999999994 C 85.71599999999998 120.16899999999994 84.70099999999998 120.16899999999994 83.59399999999998 120.16899999999994 z" stroke-linecap="round" />
</g>
		<g transform="matrix(1.56 0 0 1.56 -348.46 11.13)"  >
<path style="stroke: none; stroke-width: 1; stroke-dasharray: none; stroke-linecap: butt; stroke-dashoffset: 0; stroke-linejoin: miter; stroke-miterlimit: 4; fill: rgb(255,255,255); fill-rule: evenodd; opacity: 1;" vector-effect="non-scaling-stroke"  transform=" translate(-32.69, -80.18)" d="M 35.053 142.317 L 31.269999999999996 141.024 C 31.269999999999996 141.024 31.731999999999996 121.738 24.809999999999995 120.354 C 20.196999999999996 115.001 25.549999999999994 -106.659 42.16 119.615 C 42.16 119.615 36.437999999999995 122.475 35.422999999999995 127.36699999999999 C 34.315 132.166 35.053 142.31699999999998 35.053 142.31699999999998 z" stroke-linecap="round" />
</g>
		<g transform="matrix(1.56 0 0 1.56 -348.46 11.13)"  >
<path style="stroke: none; stroke-width: 1; stroke-dasharray: none; stroke-linecap: butt; stroke-dashoffset: 0; stroke-linejoin: miter; stroke-miterlimit: 4; fill: rgb(166,163,133); fill-rule: evenodd; opacity: 1;" vector-effect="non-scaling-stroke"  transform=" translate(-32.69, -80.18)" d="M 35.053 142.317 L 31.269999999999996 141.024 C 31.269999999999996 141.024 31.731999999999996 121.738 24.809999999999995 120.354 C 20.196999999999996 115.001 25.549999999999994 -106.659 42.16 119.615 C 42.16 119.615 36.437999999999995 122.475 35.422999999999995 127.36699999999999 C 34.315 132.166 35.053 142.31699999999998 35.053 142.31699999999998 z" stroke-linecap="round" />
</g>
		<g transform="matrix(1.56 0 0 1.56 -325.39 -17.09)"  >
<path style="stroke: none; stroke-width: 1; stroke-dasharray: none; stroke-linecap: butt; stroke-dashoffset: 0; stroke-linejoin: miter; stroke-miterlimit: 4; fill: rgb(255,255,255); fill-rule: evenodd; opacity: 1;" vector-effect="non-scaling-stroke"  transform=" translate(-47.45, -62.13)" d="M 37.084 123.676 C 37.084 123.676 70.214 101.897 62.461 56.586 C 54.986999999999995 23.643 37.361 12.845999999999997 35.423 8.692999999999998 C 33.301 5.74 31.27 0.573 31.27 0.573 L 32.655 92.207 C 32.655 92.3 29.794 120.261 37.085 123.67699999999999" stroke-linecap="round" />
</g>
		<g transform="matrix(1.56 0 0 1.56 -325.39 -17.09)"  >
<path style="stroke: none; stroke-width: 1; stroke-dasharray: none; stroke-linecap: butt; stroke-dashoffset: 0; stroke-linejoin: miter; stroke-miterlimit: 4; fill: rgb(73,157,74); fill-rule: evenodd; opacity: 1;" vector-effect="non-scaling-stroke"  transform=" translate(-47.45, -62.13)" d="M 37.084 123.676 C 37.084 123.676 70.214 101.897 62.461 56.586 C 54.986999999999995 23.643 37.361 12.845999999999997 35.423 8.692999999999998 C 33.301 5.74 31.27 0.573 31.27 0.573 L 32.655 92.207 C 32.655 92.3 29.794 120.261 37.085 123.67699999999999" stroke-linecap="round" />
</g>
		<g transform="matrix(1.56 0 0 1.56 -373.68 -16.44)"  >
<path style="stroke: none; stroke-width: 1; stroke-dasharray: none; stroke-linecap: butt; stroke-dashoffset: 0; stroke-linejoin: miter; stroke-miterlimit: 4; fill: rgb(255,255,255); fill-rule: evenodd; opacity: 1;" vector-effect="non-scaling-stroke"  transform=" translate(-16.55, -62.54)" d="M 29.333 124.875 C 29.333 124.875 -1.767 103.65 0.079 66.277 C 1.832 28.903 23.795 10.539 28.04 7.217 C 30.808999999999997 4.263999999999999 30.901 3.1559999999999997 31.086 0.2029999999999994 C 33.024 4.355999999999999 32.655 62.309 32.931 69.137 C 33.760999999999996 95.437 31.455 119.893 29.333 124.875 z" stroke-linecap="round" />
</g>
		<g transform="matrix(1.56 0 0 1.56 -373.68 -16.44)"  >
<path style="stroke: none; stroke-width: 1; stroke-dasharray: none; stroke-linecap: butt; stroke-dashoffset: 0; stroke-linejoin: miter; stroke-miterlimit: 4; fill: rgb(88,170,80); fill-rule: evenodd; opacity: 1;" vector-effect="non-scaling-stroke"  transform=" translate(-16.55, -62.54)" d="M 29.333 124.875 C 29.333 124.875 -1.767 103.65 0.079 66.277 C 1.832 28.903 23.795 10.539 28.04 7.217 C 30.808999999999997 4.263999999999999 30.901 3.1559999999999997 31.086 0.2029999999999994 C 33.024 4.355999999999999 32.655 62.309 32.931 69.137 C 33.760999999999996 95.437 31.455 119.893 29.333 124.875 z" stroke-linecap="round" />
</g>
</g>
</g>
</svg>